<?xml version="1.0" standalone="no"?>
<!DOCTYPE svg PUBLIC "-//W3C//DTD SVG 20010904//EN"
 "http://www.w3.org/TR/2001/REC-SVG-20010904/DTD/svg10.dtd">
<svg version="1.0" xmlns="http://www.w3.org/2000/svg"
 width="1350.000000pt" height="1350.000000pt" viewBox="0 0 1350.000000 1350.000000"
 preserveAspectRatio="xMidYMid meet">
<metadata>
Created by potrace 1.11, written by Peter Selinger 2001-2013
</metadata>
<g transform="translate(0.000000,1350.000000) scale(0.100000,-0.100000)"
fill="#000000" stroke="none">
<path d="M4288 11245 c-1 -1 -52 -6 -113 -10 -60 -4 -123 -9 -140 -11 -16 -2
-48 -6 -70 -8 -61 -6 -171 -23 -218 -32 -16 -3 -38 -7 -50 -9 -44 -5 -105 -18
-227 -47 -69 -16 -132 -31 -140 -33 -273 -65 -721 -248 -1035 -423 -86 -47
-89 -50 -270 -167 -553 -360 -1037 -865 -1390 -1450 -60 -101 -221 -414 -278
-545 -124 -279 -255 -737 -302 -1055 -41 -275 -50 -398 -50 -690 0 -223 8
-424 19 -495 3 -14 7 -50 10 -80 3 -30 8 -66 10 -80 3 -14 7 -41 10 -60 121
-796 460 -1542 994 -2190 96 -116 396 -422 507 -517 33 -28 101 -83 150 -122
50 -39 95 -74 100 -79 78 -62 300 -208 455 -299 363 -213 883 -413 1280 -492
88 -18 93 -19 140 -29 25 -6 68 -13 95 -17 28 -4 59 -9 70 -10 11 -2 45 -6 75
-10 30 -3 66 -8 80 -10 40 -6 170 -17 240 -21 92 -5 478 -5 520 0 19 3 76 7
126 11 51 3 100 7 110 9 11 2 46 7 79 10 33 4 71 9 85 11 64 10 99 16 145 25
28 5 61 12 75 14 368 67 777 210 1165 406 l210 106 50 -29 c172 -98 508 -249
717 -322 73 -26 329 -102 364 -109 11 -2 57 -13 104 -24 47 -11 123 -27 170
-36 157 -29 146 -27 265 -41 28 -4 61 -8 75 -10 14 -2 63 -7 110 -10 47 -4
103 -9 125 -11 48 -4 447 -4 525 0 68 4 220 17 240 21 8 2 44 6 80 10 36 4 74
9 85 11 10 2 35 6 55 9 20 3 47 8 60 10 14 3 41 8 60 11 19 3 41 7 49 10 8 2
30 7 50 10 20 3 88 19 151 35 63 17 126 32 139 35 48 10 360 118 466 161 450
184 939 486 1280 792 116 104 388 384 476 491 293 353 554 780 698 1145 18 44
38 94 46 110 16 35 105 291 111 319 2 11 10 40 18 65 17 50 69 262 82 326 4
22 8 45 10 50 4 21 24 132 29 170 4 22 8 51 10 65 3 14 7 50 11 80 3 30 7 66
9 79 26 162 26 790 0 952 -2 13 -6 51 -10 84 -41 393 -183 902 -365 1300 -283
623 -733 1208 -1250 1625 -30 25 -57 47 -60 50 -3 3 -54 42 -115 87 -351 259
-742 468 -1150 615 -95 35 -310 103 -355 113 -8 2 -52 13 -97 24 -101 26 -222
51 -318 65 -22 3 -51 8 -65 11 -14 3 -47 7 -75 10 -27 3 -61 8 -75 10 -186 34
-792 40 -1000 10 -14 -2 -52 -6 -85 -10 -33 -3 -67 -8 -75 -10 -8 -2 -37 -6
-65 -10 -27 -3 -57 -8 -65 -10 -8 -2 -32 -6 -52 -9 -58 -9 -254 -52 -343 -76
-162 -44 -181 -49 -245 -70 -36 -12 -72 -24 -80 -27 -8 -4 -17 -7 -20 -8 -3
-1 -14 -5 -25 -9 -11 -4 -33 -13 -50 -18 -151 -54 -557 -242 -661 -308 -19
-12 -28 -10 -70 14 -165 91 -610 295 -679 310 -5 1 -66 21 -135 43 -170 56
-481 136 -575 148 -11 1 -33 5 -50 8 -32 7 -69 12 -150 22 -27 4 -61 8 -75 11
-14 2 -59 6 -100 10 -41 3 -86 8 -100 10 -28 6 -546 14 -552 9z"/>
</g>
</svg>
