<svg xmlns="http://www.w3.org/2000/svg" viewBox="0 0 647 184.58"><defs><style>.cls-1{fill:#343b45;}.cls-2{fill:#e99841;}.cls-3{fill:#62a8ab;}</style></defs><title>pec-logo-white-letters-color</title><g id="Layer_2" data-name="Layer 2"><g id="Layer_1-2" data-name="Layer 1"><path class="cls-1" d="M404.59,92.28c0-22.34-14.06-38.4-35.89-38.4-22.09,0-36.89,16.06-36.89,38.4,0,22.58,14.8,38.89,36.89,38.89,21.83,0,35.89-16.31,35.89-38.89m-89.34-51.7h17.31l-.5,22.33c7.28-14.3,20.83-24.59,40.4-24.59,28.36,0,50.19,23.09,50.19,54,0,31.11-22.08,54.2-50.44,54.2-18.57,0-32.87-10-39.65-23.59v60.53H315.25Z"/><path class="cls-1" d="M522.53,85c-1.5-17.82-12.8-31.87-34.63-31.87C468.08,53.13,454.77,65.92,452,85Zm-32.12,46.67c15.56,0,26.1-6.27,32.87-13.8l10.79,10.54c-9.53,10.79-23.33,18.07-43.66,18.07-34.13,0-56.21-23.59-56.21-53.95s23.33-54.21,53.7-54.21c33.38,0,53.45,25.6,52.2,60H451.76c2.26,19.82,15.81,33.37,38.65,33.37"/><path class="cls-1" d="M551.14,92.53c0-30.37,23.33-54.21,54-54.21,18.57,0,31.37,7,40.91,18.57L633.45,67.18c-6.28-8.28-15.31-13.3-28.36-13.3-22.08,0-35.89,16.56-35.89,38.65s13.81,38.64,35.89,38.64c14.3,0,23.34-5.77,29.86-13.55l12,10.29c-9.79,11.79-22.59,18.57-41.91,18.57-30.62,0-54-23.59-54-53.95"/><path class="cls-1" d="M184.58,0a92.29,92.29,0,0,0-46.09,12.39,92.33,92.33,0,1,0-.12,159.79A92.29,92.29,0,1,0,184.58,0ZM92.29,166.12A73.83,73.83,0,1,1,121.87,24.63a92,92,0,0,0-13,14.85,55.37,55.37,0,1,0,38.75,52.81,36.95,36.95,0,1,1,12.92,28,73.49,73.49,0,0,1-9.26,16.23l0,0A74.11,74.11,0,0,1,92.29,166.12Zm92.29,0A73.55,73.55,0,0,1,155,160a92.59,92.59,0,0,0,13-14.85,55.36,55.36,0,1,0-38.76-52.81,36.95,36.95,0,1,1-12.92-28A73.86,73.86,0,0,1,125.56,48l0,0a73.83,73.83,0,1,1,59.06,118.12Z"/><circle class="cls-1" cx="184.58" cy="92.29" r="15.38"/><circle class="cls-1" cx="92.29" cy="92.29" r="15.38"/><path class="cls-2" d="M184.58,55.37a37,37,0,0,0-36.92,36.92,55.36,55.36,0,1,1-38.75-52.82,92.89,92.89,0,0,1,13-14.84c-.83-.36-1.68-.7-2.52-1h0a73.83,73.83,0,1,0,41.24,96.73,36.91,36.91,0,1,0,24-64.95Zm0,52.3A15.38,15.38,0,1,1,200,92.29,15.38,15.38,0,0,1,184.58,107.67Z"/><path class="cls-3" d="M184.58,18.46a73.92,73.92,0,0,0-68.29,45.81,36.9,36.9,0,1,0,12.92,28A55.36,55.36,0,1,1,168,145.11,92,92,0,0,1,155,160l.26.11c.81.35,1.63.69,2.45,1l.69.25c.61.24,1.23.47,1.85.68A73.83,73.83,0,1,0,184.58,18.46ZM92.29,107.67a15.38,15.38,0,1,1,15.38-15.38A15.38,15.38,0,0,1,92.29,107.67Z"/></g></g></svg>